# xmcd
# 
# Track frame offsets:
#     150
#     11482
#     33727
#     50089
#     62381
#     69581
#     91631
#     115093
#     131475
#     161004
#     186707
#     203459
#     219482
#     244474
# 
# Disc length: 3411
# 
# Revision: 0
# Processed by: cddbd v1.5.2PL0 Copyright (c) Steve Scherf et al.
# Submitted via: fre:ac v1.0.31
# 
DISCID=c60d510e
DTITLE=Various Artist - Jazz Loves Bernstein [CD1)
DYEAR=2018
DGENRE=Jazz
TTITLE0=Billie Holiday - Big Stuff
TTITLE1=Manny Albam and His Jazz Greats - Amerika/I feel Pretty/One Hand, One Heart
TTITLE2=Bobby Scott - New York, New York
TTITLE3=Billy Eckstine - Tonight
TTITLE4=Bill Charlap - A quiet Girl
TTITLE5=Oliver Nelson and His Orchestra - Cool
TTITLE6=Bob James - My Love
TTITLE7=Monica Zetterlund with Bill Evans - Lucky to be Me
TTITLE8=Eric Reed - Maria
TTITLE9=Bill Charlap Trio - It's Love
TTITLE10=Mel Tormé - Lonely Town
TTITLE11=Manny Albam and His Jazz Greats - Something's Coming
TTITLE12=Oscar Peterson Trio - Somewhere
TTITLE13=Sarah Vaughan - I feel Pretty
EXTD=
EXTT0=
EXTT1=
EXTT2=
EXTT3=
EXTT4=
EXTT5=
EXTT6=
EXTT7=
EXTT8=
EXTT9=
EXTT10=
EXTT11=
EXTT12=
EXTT13=
PLAYORDER=
